<svg xmlns="http://www.w3.org/2000/svg" width="247.797" height="50" viewBox="0 0 247.797 50">
  <g id="Logo" transform="translate(-35.251 -142.483)">
    <path id="Path_362" data-name="Path 362" d="M69.163,175.623H64.987s1.005-7.157-1.716-8.612S51.3,172.088,43.326,152.957c0,0-3.622-6.619-8.075-8.162,0,0,35.09-12.234,34.085,19.581,0,0-6.256-17.779-21.487-18.4C47.866,145.991,69.163,154.049,69.163,175.623Z" transform="translate(0 0)" fill="#2dbb54"/>
    <g id="Group_34" data-name="Group 34" transform="translate(187.308 181.237)" style="isolation: isolate">
      <path id="Path_438" data-name="Path 438" d="M915.4,378.346c-1.456,0-2.634-.814-2.634-2.079h1.265a1.179,1.179,0,0,0,1.352,1.092c.814,0,1.352-.451,1.352-1.092,0-1.82-3.985-.641-3.985-3.362,0-1.265,1.005-2.079,2.547-2.079,1.456,0,2.443.728,2.547,1.993h-1.352c0-.537-.451-1.005-1.265-1.005-.728,0-1.265.364-1.265,1.005,0,1.715,3.9.641,3.9,3.362C918.036,377.255,917.118,378.346,915.4,378.346Z" transform="translate(-912.751 -370.012)"/>
      <path id="Path_439" data-name="Path 439" d="M960.73,381.347c0-1.092-.537-1.629-1.456-1.629-.9,0-1.456.537-1.456,1.629V384.6h-1.178v-3.258c0-1.092-.537-1.629-1.456-1.629s-1.456.537-1.456,1.629V384.6h-1.178v-5.892h1.178v.641a2.2,2.2,0,0,1,1.716-.728,2.138,2.138,0,0,1,2.079,1.178,2.287,2.287,0,0,1,2.079-1.178,2.356,2.356,0,0,1,2.443,2.547v3.448h-1.178v-3.258h-.139Z" transform="translate(-945.654 -376.46)"/>
      <path id="Path_440" data-name="Path 440" d="M1016.072,379.226a2.407,2.407,0,0,1,2.079,1.005v-.814h1.265v5.892h-1.265v-.9a2.472,2.472,0,0,1-2.079,1.005,3.119,3.119,0,0,1,0-6.186Zm.26.988a2,2,0,1,0,1.819,1.993A1.874,1.874,0,0,0,1016.331,380.214Z" transform="translate(-995.919 -376.956)"/>
      <path id="Path_441" data-name="Path 441" d="M1059.029,384.708h-1.178v-5.892h1.178v.814a2.033,2.033,0,0,1,1.716-1.005v1.265h-.277c-.9,0-1.456.364-1.456,1.629v3.188Z" transform="translate(-1032.707 -376.46)"/>
      <path id="Path_442" data-name="Path 442" d="M1078.879,373.687h-.728v-1.005h.728v-1.456h1.265v1.456h1.456v1.005h-1.456v3.258c0,.451.173.641.728.641h.728v1.005h-1.005c-1.092,0-1.716-.451-1.716-1.629v-3.275Z" transform="translate(-1049.49 -370.342)"/>
      <path id="Path_443" data-name="Path 443" d="M1121.5,378.346c-1.456,0-2.634-.814-2.634-2.079h1.265a1.179,1.179,0,0,0,1.352,1.092c.814,0,1.352-.451,1.352-1.092,0-1.82-3.986-.641-3.986-3.362,0-1.265,1.005-2.079,2.547-2.079,1.456,0,2.443.728,2.547,1.993h-1.352c0-.537-.45-1.005-1.265-1.005-.728,0-1.265.364-1.265,1.005,0,1.715,3.9.641,3.9,3.362C1124.049,377.255,1123.148,378.346,1121.5,378.346Z" transform="translate(-1083.137 -370.012)"/>
      <path id="Path_444" data-name="Path 444" d="M1158.045,379.226a2.587,2.587,0,0,1,2.721,1.993h-1.352a1.316,1.316,0,0,0-1.352-.9c-1.005,0-1.629.728-1.629,1.993s.641,1.993,1.629,1.993a1.3,1.3,0,0,0,1.352-.9h1.352a2.672,2.672,0,0,1-2.721,1.993,3.091,3.091,0,0,1,0-6.169Z" transform="translate(-1113.147 -376.956)"/>
      <path id="Path_445" data-name="Path 445" d="M1194.749,384.795a2.889,2.889,0,0,1-3-3.084,2.976,2.976,0,0,1,3-3.084,2.889,2.889,0,0,1,3,3.084A2.844,2.844,0,0,1,1194.749,384.795Zm0-1.092a2,2,0,0,0,0-3.986c-.919,0-1.715.641-1.715,1.993A1.725,1.725,0,0,0,1194.749,383.7Z" transform="translate(-1143.405 -376.46)"/>
      <path id="Path_446" data-name="Path 446" d="M1238.988,385.535h-1.178v-.728a2.127,2.127,0,0,1-1.716.814,2.356,2.356,0,0,1-2.443-2.547v-3.448h1.178v3.258c0,1.092.537,1.629,1.456,1.629s1.456-.537,1.456-1.629v-3.258h1.178v5.892h.069Z" transform="translate(-1178.044 -377.287)"/>
      <path id="Path_447" data-name="Path 447" d="M1271.479,373.687h-.728v-1.005h.728v-1.456h1.265v1.456h1.456v1.005h-1.456v3.258c0,.451.173.641.728.641h.728v1.005h-1c-1.092,0-1.716-.451-1.716-1.629v-3.275Z" transform="translate(-1208.715 -370.342)"/>
      <path id="Path_448" data-name="Path 448" d="M1295.851,366.94a.814.814,0,0,1,.814-.814.744.744,0,0,1,.728.814.8.8,0,0,1-.728.814A.952.952,0,0,1,1295.851,366.94Zm.191,1.542h1.178v5.892h-1.178Z" transform="translate(-1229.466 -366.126)"/>
      <path id="Path_449" data-name="Path 449" d="M1317.327,381.347c0-1.092-.537-1.629-1.456-1.629s-1.456.537-1.456,1.629V384.6h-1.265v-5.892h1.178v.641a2.428,2.428,0,0,1,4.159,1.819v3.448h-1.179v-3.275Z" transform="translate(-1243.768 -376.46)"/>
      <path id="Path_450" data-name="Path 450" d="M1353.658,379.226a2.407,2.407,0,0,1,2.079,1.005v-.814H1357v5.978a2.963,2.963,0,0,1-5.788.728h1.178c.173.641.814,1.005,1.715,1.005a1.544,1.544,0,0,0,1.629-1.716v-1.005a2.473,2.473,0,0,1-2.079,1.005,3.108,3.108,0,0,1,0-6.186Zm.277.988a2,2,0,1,0,1.819,1.993A1.939,1.939,0,0,0,1353.935,380.214Z" transform="translate(-1274.935 -376.956)"/>
    </g>
    <g id="Group_35" data-name="Group 35" transform="translate(74.517 152.247)" style="isolation: isolate">
      <path id="Path_451" data-name="Path 451" d="M261.851,205.626H267.1v21.487h-5.251Z" transform="translate(-261.851 -204.448)"/>
      <path id="Path_452" data-name="Path 452" d="M325.959,219.4H322.7v7.711h-5.25V205.626h8.526c5.251,0,7.884,3,7.884,6.9C333.844,216.144,331.487,219.4,325.959,219.4Zm-.364-4.176c2.079,0,3-1.005,3-2.721,0-1.629-.9-2.721-3-2.721h-2.825v5.441Z" transform="translate(-307.816 -204.448)"/>
      <path id="Path_453" data-name="Path 453" d="M431.351,205.626h6.169l6.082,14.868,5.978-14.868h6.169v21.487H450.5V214.238l-4.817,12.875h-4.263l-4.8-12.962v12.962h-5.251l-.017-21.487Z" transform="translate(-401.979 -204.448)"/>
      <path id="Path_454" data-name="Path 454" d="M642.79,226.05c-4.627,0-8.248-2.27-8.439-6.619h5.615a2.468,2.468,0,0,0,2.634,2.443c1.542,0,2.547-.728,2.547-1.993,0-3.986-10.8-1.819-10.692-9.513,0-4.072,3.362-6.342,7.885-6.342,4.713,0,7.884,2.357,8.075,6.429H644.7a2.409,2.409,0,0,0-2.443-2.27,1.921,1.921,0,0,0-2.183,1.993c0,3.726,10.6,2.079,10.6,9.253C650.588,223.07,647.781,226.05,642.79,226.05Z" transform="translate(-569.802 -203.125)"/>
      <path id="Path_455" data-name="Path 455" d="M752.863,229.626c4.263,0,7.347,2.357,8.248,6.429H755.5a2.743,2.743,0,0,0-2.721-1.993c-1.906,0-3.171,1.456-3.171,4.349s1.265,4.349,3.171,4.349a2.651,2.651,0,0,0,2.721-1.993h5.614c-.9,3.986-3.9,6.429-8.248,6.429-4.991,0-8.612-3.362-8.612-8.8C744.251,233.074,747.786,229.626,752.863,229.626Z" transform="translate(-660.658 -224.289)"/>
      <path id="Path_456" data-name="Path 456" d="M863.454,247.132c-4.991,0-8.8-3.362-8.8-8.8s3.9-8.8,8.89-8.8,8.889,3.362,8.889,8.8C872.43,243.787,868.531,247.132,863.454,247.132Zm0-4.523c1.906,0,3.622-1.352,3.622-4.263s-1.715-4.263-3.535-4.263c-1.906,0-3.535,1.352-3.535,4.263S861.548,242.609,863.454,242.609Z" transform="translate(-751.928 -224.206)"/>
      <path id="Path_457" data-name="Path 457" d="M993.185,248.777h-5.25v-2.357a6.254,6.254,0,0,1-5.164,2.547c-3.985,0-6.619-2.721-6.619-7.261v-9.981h5.164v9.253c0,2.357,1.352,3.622,3.258,3.622,1.993,0,3.362-1.265,3.362-3.622v-9.253h5.25v17.051Z" transform="translate(-852.374 -226.025)"/>
      <path id="Path_458" data-name="Path 458" d="M1094.33,215.652h-2.079V211.3h2.079v-4.176h5.25V211.3h3.448v4.349h-3.448v6.9c0,1.005.451,1.456,1.629,1.456h1.906v4.436h-2.634c-3.535,0-6.082-1.542-6.082-5.978v-6.793h-.069Z" transform="translate(-948.356 -205.688)"/>
      <path id="Path_459" data-name="Path 459" d="M1177.263,247.132c-4.991,0-8.612-3.362-8.612-8.8s3.535-8.8,8.612-8.8a8.1,8.1,0,0,1,8.526,8.526,9.734,9.734,0,0,1-.087,1.542h-11.87c.173,2.27,1.542,3.258,3.258,3.258a2.822,2.822,0,0,0,2.721-1.629h5.614C1184.61,244.6,1181.526,247.132,1177.263,247.132Zm-3.362-10.414h6.533c0-1.906-1.456-2.894-3.258-2.894A3.086,3.086,0,0,0,1173.9,236.717Z" transform="translate(-1011.517 -224.206)"/>
      <path id="Path_460" data-name="Path 460" d="M1286.355,198.826h5.251v12.511l5.164-6.983h6.429l-7.07,8.612,7.157,8.526h-6.533l-5.25-7.157v7.157h-5.25V198.826Z" transform="translate(-1108.738 -198.826)"/>
    </g>
    <g id="Group_36" data-name="Group 36" transform="translate(270.537 152.143)" style="isolation: isolate">
      <path id="Path_461" data-name="Path 461" d="M1393.051,198.226h4.349v1.005h-1.542v5.25h-1.265v-5.25h-1.542v-1.005Zm5.354,0h1.629l1.993,4.8,1.993-4.8h1.542v6.256h-1.178v-4.54l-1.993,4.54h-.9l-1.906-4.627v4.627h-1.178v-6.256Z" transform="translate(-1393.051 -198.226)"/>
    </g>
  </g>
</svg>
